<?xml version="1.0" encoding="UTF-8"?>
<svg id="Layer_1" data-name="Layer 1" xmlns="http://www.w3.org/2000/svg" xmlns:xlink="http://www.w3.org/1999/xlink" viewBox="0 0 792 612">
  <defs>
    <style>
      .cls-1 {
        letter-spacing: .01em;
      }

      .cls-2 {
        fill: #efbb54;
      }

      .cls-3 {
        letter-spacing: -.04em;
      }

      .cls-4 {
        letter-spacing: .01em;
      }

      .cls-5 {
        fill: #5a441a;
      }

      .cls-6 {
        fill: #fff;
      }

      .cls-7 {
        letter-spacing: -.06em;
      }

      .cls-8 {
        fill: #534018;
      }

      .cls-9 {
        fill: url(#Degradado_sin_nombre_73);
      }

      .cls-10 {
        letter-spacing: -.01em;
      }

      .cls-11 {
        letter-spacing: 0em;
      }

      .cls-12 {
        fill: #b08837;
      }

      .cls-13 {
        fill: #fdca6f;
      }

      .cls-14 {
        letter-spacing: .02em;
      }

      .cls-15 {
        fill: url(#linear-gradient-6);
      }

      .cls-16 {
        letter-spacing: -.04em;
      }

      .cls-17 {
        fill: none;
        stroke: #73808d;
        stroke-linecap: round;
        stroke-linejoin: round;
      }

      .cls-18 {
        fill: #fdca6e;
      }

      .cls-19 {
        fill: url(#linear-gradient-9);
        stroke: url(#linear-gradient-10);
        stroke-width: .88px;
      }

      .cls-19, .cls-20, .cls-21, .cls-22, .cls-23 {
        stroke-miterlimit: 10;
      }

      .cls-24 {
        fill: url(#linear-gradient-11);
      }

      .cls-25 {
        letter-spacing: -.02em;
      }

      .cls-26 {
        letter-spacing: 0em;
      }

      .cls-27 {
        letter-spacing: -.01em;
      }

      .cls-28 {
        letter-spacing: .03em;
      }

      .cls-29 {
        letter-spacing: -.02em;
      }

      .cls-30, .cls-31 {
        fill: #213467;
      }

      .cls-32 {
        letter-spacing: 0em;
      }

      .cls-33 {
        font-family: Montserrat-Light, Montserrat;
        font-size: 12.03px;
        font-weight: 300;
      }

      .cls-33, .cls-34 {
        fill: #73808d;
      }

      .cls-35 {
        fill: url(#radial-gradient);
      }

      .cls-36 {
        fill: url(#Degradado_sin_nombre_73-2);
      }

      .cls-31 {
        font-size: 12px;
      }

      .cls-31, .cls-34 {
        font-family: Montserrat-SemiBold, Montserrat;
        font-weight: 600;
      }

      .cls-20 {
        fill: url(#linear-gradient);
        stroke: url(#linear-gradient-2);
      }

      .cls-20, .cls-23 {
        stroke-width: 1.05px;
      }

      .cls-37 {
        letter-spacing: -.01em;
      }

      .cls-38 {
        letter-spacing: 0em;
      }

      .cls-39 {
        letter-spacing: 0em;
      }

      .cls-40 {
        fill: #be202e;
        font-family: Montserrat-Medium, Montserrat;
        font-size: 40px;
        font-weight: 500;
      }

      .cls-41 {
        letter-spacing: 0em;
      }

      .cls-42 {
        letter-spacing: .02em;
      }

      .cls-43 {
        fill: #d0a143;
      }

      .cls-44 {
        letter-spacing: 0em;
      }

      .cls-21 {
        fill: url(#linear-gradient-7);
        stroke: url(#linear-gradient-8);
        stroke-width: .44px;
      }

      .cls-45 {
        letter-spacing: -.02em;
      }

      .cls-46 {
        fill: #e32629;
      }

      .cls-47 {
        letter-spacing: .02em;
      }

      .cls-34 {
        font-size: 13.39px;
      }

      .cls-48 {
        fill: #f9c66c;
      }

      .cls-49 {
        letter-spacing: 0em;
      }

      .cls-50 {
        letter-spacing: -.02em;
      }

      .cls-51 {
        letter-spacing: 0em;
      }

      .cls-52 {
        letter-spacing: .02em;
      }

      .cls-53 {
        fill: #c99b3f;
      }

      .cls-54 {
        fill: url(#linear-gradient-3);
      }

      .cls-22 {
        stroke: #fff;
        stroke-width: .25px;
      }

      .cls-55 {
        letter-spacing: -.03em;
      }

      .cls-23 {
        fill: url(#linear-gradient-4);
        stroke: url(#linear-gradient-5);
      }

      .cls-56 {
        fill: #b48b38;
      }
    </style>
    <linearGradient id="Degradado_sin_nombre_73" data-name="Degradado sin nombre 73" x1="13.9" y1="306.3" x2="777.2" y2="306.3" gradientUnits="userSpaceOnUse">
      <stop offset="0" stop-color="#f4b853"/>
      <stop offset=".15" stop-color="#fef5a2"/>
      <stop offset=".29" stop-color="#d5992f"/>
      <stop offset=".4" stop-color="#f4b853"/>
      <stop offset=".5" stop-color="#fef5a2"/>
      <stop offset=".59" stop-color="#d5992f"/>
      <stop offset=".72" stop-color="#f4b853"/>
      <stop offset=".82" stop-color="#fef5a2"/>
      <stop offset="1" stop-color="#d5992f"/>
    </linearGradient>
    <linearGradient id="Degradado_sin_nombre_73-2" data-name="Degradado sin nombre 73" x1="26.29" y1="305.57" x2="763.4" y2="305.57" xlink:href="#Degradado_sin_nombre_73"/>
    <linearGradient id="linear-gradient" x1="109.82" y1="567.69" x2="92.93" y2="606.3" gradientTransform="translate(525.26) rotate(-180) scale(1 -1)" gradientUnits="userSpaceOnUse">
      <stop offset="0" stop-color="#f4b853"/>
      <stop offset=".26" stop-color="#fef5a2"/>
      <stop offset=".51" stop-color="#d5992f"/>
      <stop offset=".79" stop-color="#fef5a2"/>
      <stop offset="1" stop-color="#d5992f"/>
    </linearGradient>
    <linearGradient id="linear-gradient-2" x1="388.96" y1="570.23" x2="444.14" y2="570.23" gradientTransform="matrix(1, 0, 0, 1, 0, 0)" xlink:href="#linear-gradient"/>
    <linearGradient id="linear-gradient-3" x1="50.68" y1="567.75" x2="35.8" y2="601.77" gradientTransform="translate(466.15) rotate(-180) scale(1 -1)" gradientUnits="userSpaceOnUse">
      <stop offset="0" stop-color="#0065b2"/>
      <stop offset="1" stop-color="#1d3965"/>
    </linearGradient>
    <linearGradient id="linear-gradient-4" x1="437.5" y1="567.69" x2="420.61" y2="606.3" gradientTransform="translate(-59.11)" xlink:href="#linear-gradient"/>
    <linearGradient id="linear-gradient-5" x1="349.68" y1="570.23" x2="404.87" y2="570.23" gradientTransform="matrix(1, 0, 0, 1, 0, 0)" xlink:href="#linear-gradient"/>
    <linearGradient id="linear-gradient-6" x1="378.37" x2="363.48" y2="601.77" gradientTransform="matrix(1, 0, 0, 1, 0, 0)" xlink:href="#linear-gradient-3"/>
    <linearGradient id="linear-gradient-7" x1="347.29" y1="519.07" x2="446.54" y2="519.07" gradientUnits="userSpaceOnUse">
      <stop offset="0" stop-color="#f4b853"/>
      <stop offset=".51" stop-color="#fef5a2"/>
      <stop offset="1" stop-color="#d5992f"/>
    </linearGradient>
    <linearGradient id="linear-gradient-8" x1="347.07" x2="446.76" xlink:href="#linear-gradient-7"/>
    <linearGradient id="linear-gradient-9" x1="351.15" y1="519.07" x2="442.68" y2="519.07" gradientTransform="translate(483.29 -128.63) rotate(45)" xlink:href="#linear-gradient"/>
    <linearGradient id="linear-gradient-10" x1="350.71" y1="519.07" x2="443.12" y2="519.07" gradientTransform="translate(483.29 -128.63) rotate(45)" xlink:href="#linear-gradient"/>
    <linearGradient id="linear-gradient-11" x1="395.55" y1="458.24" x2="397.61" y2="549.92" gradientTransform="translate(483.29 -128.63) rotate(45)" xlink:href="#linear-gradient"/>
    <radialGradient id="radial-gradient" cx="397.31" cy="519.47" fx="397.31" fy="519.47" r="31.42" gradientUnits="userSpaceOnUse">
      <stop offset="0" stop-color="#f4b853"/>
      <stop offset=".59" stop-color="#fef5a2"/>
      <stop offset="1" stop-color="#d5992f"/>
    </radialGradient>
  </defs>
  <text class="cls-34" transform="translate(331.69 159.85) scale(.98 1)"><tspan x="0" y="0">This </tspan><tspan class="cls-32" x="31.7" y="0">c</tspan><tspan x="39.38" y="0">e</tspan><tspan class="cls-1" x="47.71" y="0">r</tspan><tspan x="53.54" y="0">tifies that:</tspan></text>
  <path class="cls-9" d="m777.2,597.96H13.9V14.63h763.3v583.33Zm-758.3-5h753.3V19.63H18.9v573.33Z"/>
  <path class="cls-36" d="m763.4,584.13H26.29V27.02h737.11v557.11Zm-735.11-2h733.11V29.02H28.29v553.11Z"/>
  <text class="cls-40" transform="translate(264.67 366.78) scale(.98 1)"><tspan x="0" y="0">CE</tspan><tspan class="cls-39" x="55.72" y="0">R</tspan><tspan x="84.4" y="0">TIFI</tspan><tspan class="cls-29" x="158.08" y="0">C</tspan><tspan class="cls-3" x="186.32" y="0">A</tspan><tspan x="214.2" y="0">TE</tspan></text>
  <text class="cls-31" transform="translate(104.77 512.22) scale(.98 1)"><tspan x="0" y="0">1</tspan><tspan class="cls-38" x="4.57" y="0">9</tspan><tspan x="12.08" y="0">18 w </tspan><tspan class="cls-45" x="42.13" y="0">4</tspan><tspan x="49.98" y="0">100 S Sui</tspan><tspan class="cls-50" x="104.06" y="0">t</tspan><tspan x="108.93" y="0">e 200</tspan><tspan x="-30.7" y="13.58">SA</tspan><tspan class="cls-7" x="-14.17" y="13.58">L</tspan><tspan x="-7.76" y="13.58">T </tspan><tspan class="cls-11" x="2.78" y="13.58">L</tspan><tspan x="9.98" y="13.58">AKE CI</tspan><tspan class="cls-10" x="51.62" y="13.58">T</tspan><tspan class="cls-16" x="58.72" y="13.58">Y</tspan><tspan x="66.21" y="13.58">, 8</tspan><tspan class="cls-45" x="80.27" y="13.58">4</tspan><tspan x="88.12" y="13.58">119 </tspan><tspan class="cls-27" x="108.1" y="13.58">U</tspan><tspan class="cls-3" x="117.41" y="13.58">T</tspan><tspan x="124.21" y="13.58">AH-USA</tspan></text>
  <text class="cls-31" transform="translate(548.77 512.22) scale(.98 1)"><tspan class="cls-10" x="0" y="0">P</tspan><tspan x="8.59" y="0">HON</tspan><tspan class="cls-49" x="38.14" y="0">E</tspan><tspan x="46.12" y="0">: (8</tspan><tspan class="cls-38" x="64.34" y="0">0</tspan><tspan x="72.41" y="0">1) 83</tspan><tspan class="cls-26" x="99.27" y="0">9</tspan><tspan class="cls-37" x="106.86" y="0">-</tspan><tspan x="111.3" y="0">222</tspan><tspan class="cls-10" x="-18.52" y="13.58">ww</tspan><tspan class="cls-55" x="3.29" y="13.58">w</tspan><tspan class="cls-4" x="13.92" y="13.58">.</tspan><tspan x="16.97" y="13.58">a</tspan><tspan class="cls-11" x="24.26" y="13.58">m</tspan><tspan x="36.91" y="13.58">e</tspan><tspan class="cls-44" x="44.37" y="13.58">r</tspan><tspan x="49.35" y="13.58">ica</tspan><tspan class="cls-11" x="67.07" y="13.58">n</tspan><tspan x="75.31" y="13.58">o</tspan><tspan class="cls-11" x="83.05" y="13.58">n</tspan><tspan class="cls-4" x="91.28" y="13.58">e-</tspan><tspan x="103.6" y="13.58">esl</tspan><tspan class="cls-10" x="120.71" y="13.58">.</tspan><tspan class="cls-51" x="123.52" y="13.58">c</tspan><tspan x="130.4" y="13.58">om</tspan></text>
  <g>
    <g>
      <line class="cls-17" x1="103.28" y1="452.04" x2="248.76" y2="452.04"/>
      <text class="cls-33" transform="translate(107.76 467.7) scale(.98 1)"><tspan class="cls-52" x="0" y="0">A</tspan><tspan class="cls-41" x="8.66" y="0">C</tspan><tspan class="cls-28" x="17.34" y="0">ADEMIC DIR</tspan><tspan class="cls-14" x="95.7" y="0">E</tspan><tspan class="cls-47" x="104.01" y="0">C</tspan><tspan class="cls-52" x="112.82" y="0">T</tspan><tspan class="cls-42" x="119.77" y="0">OR</tspan></text>
    </g>
    <g>
      <line class="cls-17" x1="525.23" y1="452.04" x2="670.71" y2="452.04"/>
      <text class="cls-33" transform="translate(564.23 467.7) scale(.98 1)"><tspan class="cls-52" x="0" y="0">P</tspan><tspan class="cls-28" x="8.78" y="0">RINCI</tspan><tspan class="cls-25" x="44.44" y="0">P</tspan><tspan class="cls-28" x="52.8" y="0">AL</tspan></text>
    </g>
  </g>
  <g>
    <path class="cls-30" d="m344.82,80.05h-6.98l-1.23,3.2h-6.3l8.03-18.36h6.09l8.03,18.36h-6.4l-1.23-3.2Zm-1.7-4.46l-1.78-4.62-1.78,4.62h3.57Z"/>
    <polygon class="cls-30" points="369.85 83.25 369.8 74.89 365.81 81.6 363.08 81.6 359.1 75.17 359.1 83.25 353.46 83.25 353.46 64.89 358.55 64.89 364.53 74.68 370.35 64.89 375.44 64.89 375.49 83.25 369.85 83.25"/>
    <polygon class="cls-30" points="393.75 78.58 393.75 83.25 378.48 83.25 378.48 64.89 393.41 64.89 393.41 69.56 384.57 69.56 384.57 71.71 392.33 71.71 392.33 76.17 384.57 76.17 384.57 78.58 393.75 78.58"/>
    <path class="cls-30" d="m404.01,78.64h-1.68v4.62h-6.19v-18.36h8.84c1.7,0,3.17.28,4.43.84,1.26.56,2.23,1.36,2.91,2.41.68,1.05,1.02,2.27,1.02,3.67,0,1.31-.3,2.46-.89,3.44-.6.98-1.45,1.76-2.57,2.34l3.86,5.67h-6.61l-3.12-4.62Zm2.47-8.41c-.42-.38-1.05-.56-1.89-.56h-2.26v4.3h2.26c.84,0,1.47-.19,1.89-.56.42-.38.63-.91.63-1.59s-.21-1.21-.63-1.59"/>
    <rect class="cls-30" x="415.68" y="64.89" width="6.19" height="18.36"/>
    <path class="cls-30" d="m429.11,82.45c-1.56-.81-2.78-1.95-3.66-3.41-.88-1.46-1.32-3.12-1.32-4.97s.44-3.51,1.32-4.97c.88-1.46,2.1-2.6,3.66-3.41,1.56-.81,3.31-1.22,5.25-1.22,1.78,0,3.37.31,4.77.94,1.4.63,2.55,1.54,3.46,2.73l-3.91,3.49c-1.14-1.43-2.47-2.15-4.01-2.15-1.3,0-2.34.42-3.12,1.25-.79.83-1.18,1.95-1.18,3.34s.39,2.51,1.18,3.34c.79.83,1.83,1.25,3.12,1.25,1.54,0,2.88-.72,4.01-2.15l3.91,3.49c-.91,1.19-2.06,2.1-3.46,2.73-1.4.63-2.99.94-4.77.94-1.94,0-3.69-.41-5.25-1.22"/>
    <path class="cls-30" d="m456.63,80.05h-6.98l-1.23,3.2h-6.3l8.03-18.36h6.09l8.03,18.36h-6.4l-1.23-3.2Zm-1.7-4.46l-1.78-4.62-1.78,4.62h3.57Z"/>
    <polygon class="cls-30" points="483.36 64.89 483.36 83.25 478.27 83.25 471.3 74.91 471.3 83.25 465.26 83.25 465.26 64.89 470.35 64.89 477.33 73.23 477.33 64.89 483.36 64.89"/>
    <path class="cls-46" d="m498.52,82.44c-1.57-.82-2.81-1.96-3.7-3.42-.89-1.46-1.34-3.11-1.34-4.95s.45-3.48,1.34-4.94c.89-1.46,2.12-2.6,3.7-3.42,1.57-.82,3.35-1.23,5.33-1.23s3.75.41,5.32,1.23c1.57.82,2.81,1.96,3.7,3.42.89,1.46,1.34,3.11,1.34,4.94s-.45,3.48-1.34,4.95c-.89,1.46-2.12,2.6-3.7,3.42-1.57.82-3.35,1.23-5.32,1.23s-3.75-.41-5.33-1.23m7.41-4.34c.62-.38,1.11-.91,1.48-1.6.37-.69.55-1.5.55-2.43s-.18-1.73-.55-2.43c-.37-.69-.86-1.22-1.48-1.6-.62-.38-1.32-.56-2.09-.56s-1.47.19-2.09.56c-.62.38-1.11.91-1.48,1.6-.37.69-.55,1.5-.55,2.43s.18,1.74.55,2.43c.37.69.86,1.22,1.48,1.6.62.38,1.32.56,2.09.56s1.46-.19,2.09-.56"/>
    <polygon class="cls-46" points="534.57 64.89 534.57 83.25 529.48 83.25 522.5 74.91 522.5 83.25 516.47 83.25 516.47 64.89 521.56 64.89 528.53 73.23 528.53 64.89 534.57 64.89"/>
    <polygon class="cls-46" points="552.83 78.58 552.83 83.25 537.56 83.25 537.56 64.89 552.48 64.89 552.48 69.56 543.64 69.56 543.64 71.71 551.41 71.71 551.41 76.17 543.64 76.17 543.64 78.58 552.83 78.58"/>
    <polygon class="cls-30" points="343.17 104.96 343.17 108.89 330.32 108.89 330.32 93.44 342.88 93.44 342.88 97.37 335.44 97.37 335.44 99.18 341.98 99.18 341.98 102.93 335.44 102.93 335.44 104.96 343.17 104.96"/>
    <polygon class="cls-30" points="360.41 93.44 360.41 108.89 356.13 108.89 350.25 101.87 350.25 108.89 345.18 108.89 345.18 93.44 349.46 93.44 355.33 100.46 355.33 93.44 360.41 93.44"/>
    <path class="cls-30" d="m373.15,100.75h4.53v6.53c-.91.63-1.97,1.12-3.18,1.46-1.21.34-2.39.51-3.55.51-1.65,0-3.13-.34-4.44-1.03-1.31-.68-2.34-1.64-3.08-2.87-.74-1.23-1.12-2.62-1.12-4.18s.37-2.95,1.12-4.18c.74-1.23,1.78-2.19,3.11-2.87,1.33-.69,2.84-1.03,4.51-1.03,1.52,0,2.87.25,4.07.76,1.2.51,2.2,1.25,2.99,2.22l-3.33,2.94c-.97-1.13-2.13-1.7-3.47-1.7-1.15,0-2.06.35-2.74,1.04-.68.69-1.02,1.63-1.02,2.83s.33,2.1,1,2.8c.67.71,1.56,1.06,2.68,1.06.66,0,1.3-.13,1.9-.38v-3.91Z"/>
    <polygon class="cls-30" points="379.9 93.44 385.11 93.44 385.11 104.85 392.09 104.85 392.09 108.89 379.9 108.89 379.9 93.44"/>
    <rect class="cls-30" x="393.52" y="93.44" width="5.21" height="15.45"/>
    <path class="cls-30" d="m403.27,108.82c-1.21-.29-2.21-.67-2.99-1.16l1.68-3.8c.74.43,1.56.77,2.47,1.03.91.26,1.79.39,2.63.39.72,0,1.24-.07,1.55-.21s.46-.35.46-.63c0-.32-.2-.57-.61-.73-.41-.16-1.07-.34-2-.53-1.19-.25-2.19-.52-2.98-.81-.79-.29-1.49-.76-2.07-1.41-.59-.65-.88-1.54-.88-2.66,0-.97.27-1.86.82-2.65.54-.79,1.36-1.42,2.44-1.88,1.08-.46,2.4-.68,3.94-.68,1.06,0,2.1.11,3.12.34,1.02.23,1.92.56,2.7,1l-1.57,3.77c-1.52-.76-2.95-1.15-4.31-1.15s-2.01.32-2.01.97c0,.31.2.54.6.7.4.16,1.05.32,1.96.5,1.18.22,2.17.47,2.98.76.81.29,1.51.75,2.11,1.4.6.65.89,1.53.89,2.65,0,.97-.27,1.85-.82,2.64-.54.79-1.36,1.41-2.44,1.88-1.08.46-2.4.7-3.94.7-1.28,0-2.53-.14-3.74-.43"/>
    <polygon class="cls-30" points="430.99 93.44 430.99 108.89 425.78 108.89 425.78 103.2 420.96 103.2 420.96 108.89 415.75 108.89 415.75 93.44 420.96 93.44 420.96 98.91 425.78 98.91 425.78 93.44 430.99 93.44"/>
    <path class="cls-30" d="m442.15,108.82c-1.21-.29-2.21-.67-2.99-1.16l1.68-3.8c.74.43,1.56.77,2.47,1.03.91.26,1.79.39,2.63.39.72,0,1.24-.07,1.55-.21s.46-.35.46-.63c0-.32-.2-.57-.61-.73-.41-.16-1.07-.34-2-.53-1.19-.25-2.19-.52-2.98-.81-.8-.29-1.49-.76-2.08-1.41-.59-.65-.88-1.54-.88-2.66,0-.97.27-1.86.82-2.65.54-.79,1.36-1.42,2.44-1.88,1.08-.46,2.4-.68,3.94-.68,1.06,0,2.1.11,3.12.34,1.02.23,1.92.56,2.7,1l-1.57,3.77c-1.52-.76-2.95-1.15-4.31-1.15s-2.01.32-2.01.97c0,.31.2.54.6.7.4.16,1.05.32,1.96.5,1.18.22,2.17.47,2.98.76.81.29,1.51.75,2.11,1.4.6.65.89,1.53.89,2.65,0,.97-.27,1.85-.82,2.64-.54.79-1.36,1.41-2.44,1.88-1.08.46-2.4.7-3.94.7-1.28,0-2.53-.14-3.74-.43"/>
    <path class="cls-30" d="m458.21,108.22c-1.31-.68-2.34-1.64-3.08-2.87-.74-1.23-1.11-2.62-1.11-4.18s.37-2.95,1.11-4.18c.74-1.23,1.77-2.19,3.08-2.87,1.31-.68,2.78-1.03,4.42-1.03,1.5,0,2.84.26,4.02.79s2.15,1.3,2.91,2.3l-3.29,2.94c-.96-1.21-2.08-1.81-3.38-1.81-1.09,0-1.96.35-2.63,1.05-.66.7-.99,1.64-.99,2.81s.33,2.12.99,2.82c.66.7,1.54,1.05,2.63,1.05,1.3,0,2.42-.6,3.38-1.81l3.29,2.94c-.76,1-1.74,1.77-2.91,2.29-1.18.53-2.52.8-4.02.8-1.63,0-3.11-.34-4.42-1.03"/>
    <polygon class="cls-30" points="486.29 93.44 486.29 108.89 481.08 108.89 481.08 103.2 476.27 103.2 476.27 108.89 471.05 108.89 471.05 93.44 476.27 93.44 476.27 98.91 481.08 98.91 481.08 93.44 486.29 93.44"/>
    <path class="cls-30" d="m492.42,108.21c-1.32-.69-2.36-1.65-3.11-2.88-.75-1.23-1.13-2.62-1.13-4.16s.37-2.93,1.13-4.16c.75-1.23,1.79-2.19,3.11-2.88,1.32-.69,2.82-1.04,4.48-1.04s3.16.35,4.48,1.04c1.32.69,2.36,1.65,3.11,2.88.75,1.23,1.13,2.62,1.13,4.16s-.37,2.93-1.13,4.16c-.75,1.23-1.79,2.19-3.11,2.88-1.32.69-2.82,1.04-4.48,1.04s-3.16-.35-4.48-1.04m6.24-3.65c.52-.32.94-.76,1.25-1.35.31-.58.46-1.26.46-2.04s-.16-1.46-.46-2.04c-.31-.58-.73-1.03-1.25-1.35-.52-.32-1.11-.47-1.76-.47s-1.23.16-1.76.47c-.52.32-.94.76-1.25,1.35-.31.58-.46,1.26-.46,2.04s.15,1.46.46,2.04c.31.58.72,1.03,1.25,1.35.52.32,1.11.47,1.76.47s1.23-.16,1.76-.47"/>
    <path class="cls-30" d="m511.15,108.21c-1.32-.69-2.36-1.65-3.11-2.88-.75-1.23-1.13-2.62-1.13-4.16s.37-2.93,1.13-4.16c.75-1.23,1.79-2.19,3.11-2.88,1.32-.69,2.82-1.04,4.48-1.04s3.16.35,4.48,1.04c1.32.69,2.36,1.65,3.11,2.88.75,1.23,1.13,2.62,1.13,4.16s-.37,2.93-1.13,4.16c-.75,1.23-1.79,2.19-3.11,2.88-1.32.69-2.82,1.04-4.48,1.04s-3.16-.35-4.48-1.04m6.24-3.65c.52-.32.94-.76,1.25-1.35.31-.58.46-1.26.46-2.04s-.16-1.46-.46-2.04c-.31-.58-.73-1.03-1.25-1.35-.52-.32-1.11-.47-1.76-.47s-1.23.16-1.76.47c-.52.32-.94.76-1.25,1.35-.31.58-.46,1.26-.46,2.04s.15,1.46.46,2.04c.31.58.72,1.03,1.25,1.35.52.32,1.11.47,1.76.47s1.23-.16,1.76-.47"/>
    <polygon class="cls-30" points="526.25 93.44 531.46 93.44 531.46 104.85 538.43 104.85 538.43 108.89 526.25 108.89 526.25 93.44"/>
    <path class="cls-30" d="m541.89,108.82c-1.21-.29-2.21-.67-2.99-1.16l1.68-3.8c.74.43,1.56.77,2.47,1.03.91.26,1.79.39,2.63.39.72,0,1.24-.07,1.55-.21.31-.14.46-.35.46-.63,0-.32-.2-.57-.61-.73-.41-.16-1.07-.34-2-.53-1.19-.25-2.19-.52-2.98-.81-.8-.29-1.49-.76-2.08-1.41-.59-.65-.88-1.54-.88-2.66,0-.97.27-1.86.82-2.65.54-.79,1.36-1.42,2.44-1.88,1.08-.46,2.4-.68,3.94-.68,1.06,0,2.1.11,3.12.34,1.02.23,1.92.56,2.7,1l-1.57,3.77c-1.52-.76-2.95-1.15-4.31-1.15s-2.01.32-2.01.97c0,.31.2.54.6.7.4.16,1.05.32,1.96.5,1.18.22,2.17.47,2.98.76.81.29,1.51.75,2.11,1.4.6.65.89,1.53.89,2.65,0,.97-.27,1.85-.82,2.64-.54.79-1.36,1.41-2.44,1.88-1.08.46-2.4.7-3.94.7-1.28,0-2.53-.14-3.74-.43"/>
    <g>
      <path class="cls-30" d="m287.21,55.94c16.08-4.89,33.08,4.19,37.97,20.27,4.89,16.08-4.19,33.08-20.27,37.97"/>
      <path class="cls-6" d="m287.79,58.44s9.85-2.38,14.95,0c0,0-5.28,4.31-2.9,4.84,0,0,2.29-.35,3.78,1.5h1.14s.7-2.2,0-4.05c0,0,3.08-1.06,3.61,2.02,0,0,.97.09,1.67-.44,0,0,.79.7.44,1.58,0,0,1.85,1.58,2.2,3.61l.97,1.32s-2.37.44-2.46-1.05c0,0-1.23.26-1.5.26h-.26s.44,1.14,1.14,1.41l.26.62s-4.75.44-5.89,6.95c0,0-4.75-1.94-5.81,0,0,0-.26,3.96,3.08,1.67,0,0,.97,4.49,2.38,4.22,1.41-.26,3.61-2.97,9.5,1.5v1.93s5.28-.35,4.84,1.32c-.44,1.67-.97,2.82-1.41,3.78-.44.97-2.29,2.37-2.29,2.37l-.26,1.93s-3.17,3.52-4.57,4.84c0,0-.35.79-.53,1.58-.18.79-1.23,2.37-1.23,2.37l.26,2.73s-3.96.26-2.46-7.39c1.5-7.65,1.14-8.13-.09-9.38-1.23-1.26-2.46-2.4-2.46-2.4,0,0-.35-.53.62-2.2s.26-2.14.26-2.14c0,0-1.41-.59-3.96-2.7h-2.38l-3.87-2.29-6.77-20.32Z"/>
      <polygon class="cls-46" points="248.68 115.76 264.98 115.76 268.5 103.21 287.15 103.21 290.43 115.76 306.85 115.76 285.86 50.91 269.32 50.91 248.68 115.76"/>
      <polygon class="cls-6" points="268.15 74.72 270.26 80.35 274.6 78.59 274.6 89.67 269.32 89.67 269.32 95.83 287.21 95.83 287.21 89.67 281.99 89.67 281.99 70.02 280.11 70.02 268.15 74.72"/>
    </g>
  </g>
  <g>
    <path class="cls-22" d="m545.23,436.73c-1.89-.24-1.66-.76-.75-1.94.86-1.12,1.73-2.09,2.25-3.43,1.3-3.35,2.3-6.84,3.62-10.2-1.39-.26-6.56-.62-5.13-3.37,1.16-2.23,6.12-.69,7.96-1.67,1.1-.58,1.61-2.39,3.01-2.41,1.13-.02,1.36,1.55,2.19,1.49.71-.05,2.54-3.87,2.96-4.53.93-1.48,1.86-2.96,2.8-4.44,3.65-5.72,7.4-11.86,11.95-16.91.99-1.1,4.03-4.78,5.85-3.23,1.43,1.23-2.23,6.1-3.14,7.22-.1-.04-.19-.08-.29-.12l1.92-4.84c-.07-.06-.14-.12-.2-.18-4.27,3.84-7.47,8.38-10.66,13.13-3.06,4.56-6.58,8.95-9.41,13.62,1.18.35,2.82.58,4.04.31,1.45-.32,1.91-1.49,2.73-2.7,1.65-2.42,3.2-5.03,5.12-7.24.09.05.19.1.28.16-1.59,3.19-3.17,6.39-4.75,9.57,1.61,0,4.33.53,5.78-.22,1.69-.87,2.82-3.31,4.31-4.51,1.17-.95,2.6-1.03,1.88.74-.57,1.4-2.2,2.74-3.08,4.02,3.75,0,7.47,0,11.2.4,3.16.35,6.29.85,8.27-2.02,2.32-3.37,4.45-6.88,6.73-10.27,2.04-3.03,4.03-6.63,6.93-8.92.93-.74,2.87-1.79,3.21.17.26,1.52-2.05,4.02-2.79,5.32-1.96,3.45-3.77,6.99-5.63,10.49-.68,1.27-2.4,3.35-2.59,4.77-.22,1.59,1.54,1.14,2.87,1.24,3.48.25,6.97.15,10.44.42,1.49.12,2.95.36,4.3.45,1.07.07,2.84.25,3.6-.36,1.13-.91,1.98-3.41,2.69-4.68,1.01-1.82,1.92-3.68,2.8-5.57,1.75-3.73,3.42-7.49,5.16-11.22.72-1.55,1.4-3.06,2.48-4.39.98-1.2,2.53-1.82,2.37.42-.12,1.72-1.7,3.92-2.44,5.48-.88,1.85-1.77,3.71-2.64,5.57-1.75,3.76-3.14,7.54-4.51,11.44-.29.82-1.68,2.94-.96,3.68.65.67,4.54.21,5.55.34,3.72.49,7.5.51,11.25.81,4.31.35,8.62.72,12.93,1.09,1.36.12,10.84-.11,8.94,3.05-.8,1.33-3.71.47-4.93.33-1.99-.23-3.98-.51-5.96-.76-2.02-.26-3.99-.26-6.01-.64-1.84-.35-3.66-.7-5.36.19.01-.13.03-.26.04-.39-.93-.94-2.97-.71-4.26-.86-1.92-.22-3.84-.45-5.76-.67-1.1-.13-8.71-1.77-7.91.34-2.75,3.92-5.35,7.54-8.93,10.77-1.68,1.52-3.45,2.96-4.8,4.79-1.32,1.8-3.3,4.09-3.91,6.25,4.33.72,9.03.58,13.43.78,2.26.1,4.53.19,6.79.29,2.27.1,5.04-.17,7.18.71,2.28.93,1.39,2.56-.81,2.45-1.99-.1-3.99-.36-5.99-.52-4.27-.33-8.94-1.08-13.19-.49-1.21-.71-3.18-.53-4.56-.65-1.03-.09-2.81-.6-3.84-.29-1.99.6-3.55,4.99-4.21,6.78-.31.85-.44,2.66-1.29,3.22-1.24.83-2.09-.64-2.05-1.68.04-1.27,1.14-3.18,1.68-4.32.7-1.47,1.59-2.81,2.27-4.29-4.29-.51-8.63-.64-12.94-.93-2.2-.14-4.39-.32-6.59-.49-1.68-.14-4.16-.45-5.75.19-1.58.64-2.59,2.76-3.57,4.05-1.3,1.72-2.65,3.41-3.97,5.12-2.66,3.44-5.29,7.08-8.5,10.03-1.38,1.27-3.22,3.42-4.91,4.21-.57.27-1.14.63-1.61-.14-.49-.82.52-1.47,1.02-1.97,2.96-2.92,5.79-5.84,8.49-9,2.76-3.24,5.29-6.6,7.93-9.93.32-.4,1.9-1.65,1.8-2.2-.13-.7-.19-.24-.63-.52-.7-.45-3.08-.11-3.94-.14-1.2-.05-1.84.04-2.74-.71-2.45,1.61-6.89.02-9.57-.06-1.21-.04-2.34.07-3.45,0-.86-.05-2.15-.45-2.57.55-.72-.14-1.39-.28-2.09-.42-1.84,2.07-4.86-.06-6.69,1.43,3.94.37,7.92.4,11.78,1.25,0,.1,0,.2-.01.31-1.54.67-4.33.66-6.03.67-2.18.02-4.33.32-6.51.29-2.38-.03-2.98.36-4.47,2.32-1.34,1.76-2.69,3.51-4.11,5.22-2.91,3.52-5.97,6.92-8.99,10.35-1.52,1.72-3.04,3.45-4.56,5.17-1.27,1.44-2.64,3.9-4.57,4.31.24-2.27,3.25-4.84,4.72-6.58,2-2.37,4.04-4.71,6.07-7.05,3.89-4.51,7.67-9.11,11.46-13.7-2.65-.18-5.43-.22-8.04-.71-2.83-.53-2.94-1.93-1.46-3.97.58-.81.57-1.19,1.66-1.4,1.33-.25,2.87-.02,4.22-.02,2.96,0,5.88,0,8.83-.25-.03-.79.05-1.38.89-1.35,0,0-.03-.02-.03-.02-.03.42-.06.83-.1,1.36,3.45.43,7.15-.15,10.63-.17,3.25-.02,6.46.33,9.68.28,3.78-.06,7.56.23,11.33.19,1.57-.01,1.93-.1,2.82-1.39.77-1.11,2.13-2.3,1.45-3.74-2.22,1.45-4.31,1.95-4.31-1.42-1.11,1.17-3.84,5.75-5.68,3.04-1.28-1.88,1.81-5.84,2.82-7.42,1.11-1.74,3.39-5.6,5.7-5.82,4.01-.38.59,4.63-.08,5.99,1.57-1.29,3.08-2.8,4.8-3.91.66-.43,1.32-.83,2.12-.95.85-.12,1.63.49,2.34.42,1.27-.14,2.05-2.45,2.62-3.42.8-1.37,1.7-2.5,2.38-3.93-4.22,0-8.44.09-12.66.2-1.68.04-4.04-.36-5.66.17-1.39.45-2.17,2.58-3.19,3.58-2.68,2.63-4.95,5.83-7.11,8.91-.99,1.4-1.58,2.95-2.44,4.38-1,1.66-1.76,1.39-2.91.04-1.11.79-2.93,2.03-3.9.37-.82-1.4.48-3.5.96-4.74-.1-.1-.2-.21-.31-.31-1.1,2.46-6.24,7.67-9.16,5.57-.65.55-1.2,1.02-1.76,1.49l.03-.03Zm43.98-4.9c-.76.81-1.49,1.59-2.23,2.37-1.13,1.19-2.11,1.94-3.52,2.76-1.34.78-1.66,1.5-2.47,2.8,1.09.57,2.99.45,4.21.59,1.3.14,2.61.29,3.91.43,2.63.29,5.19.66,7.83.64,1.42,0,2.84.11,4.25.21,1.18.09,3.11.57,4.2.19,1.59-.55,2.87-3.51,3.78-4.84-1.1-.62-2.33-.6-2.45-2.11-.12-1.54,1.38-3.52,2.08-4.81.55-1,1.45-3.98,2.56-2.41.88,1.25-.6,4.26-1.06,5.47,2.77-1.4,4.16-3.33,5.87-5.87,1.77-2.62,4.45-5.57,5.47-8.56-5.54-.63-11.13-.71-16.69-1-1.05-.06-3.17-.58-4.2-.13-1.07.47-1.44,1.94-2.05,2.84-1.57,2.32-3.56,4.39-5.26,6.61.72-.26,1.4-.78,2.16-.93.75-.15,1.47.13,2.22-.09,1.03-.3,1.46-1.38,2.57-1.14,2.85.63-2.38,5.57-2.93,6.83-.44,1-.1,2.34-1.2,2.99-.58.35-.99.06-1.51.18-.87.19-1.07.29-1.95.81-1.05.63-2.21,1.3-3.33.36-1.29-1.09-.55-2.86-.27-4.21Zm-39.76,1.59c4.54-3.17,7.84-7.49,11.28-11.95-1.88-.15-3.98-.64-5.4.82l.14.17c-1.66,1.01-2.51,3.97-3.47,5.68-.83,1.47-2.63,3.49-2.55,5.28Zm48.76-16.13c-.93.08-1.64-.04-2.13.23-1.23.67-2.1,2.64-2.84,3.75-.86,1.29-1.72,2.54-2.65,3.77-.84,1.11-1.54,1.88-2.46,2.84-.85.88-.98,2.18-2.19,2.69.08.01.17.02.25.03-.07.82-.97,1.95-.58,2.7,5.55-4.25,9.27-9.82,12.61-16.01Zm7.42-13.69c-.07-.04-.14-.08-.21-.12-.96,1.23-8.81,11.37-7.71,12.29,1.69,1.41,7.25-10.79,7.91-12.17Zm-40.15,20.88c.86-1.11,1.64-2.11,2.52-3.25-1.43,0-3.27-.35-4.54.46-1.21.77-2.32,2.76-3.15,3.94,1.45-.81,4.13-3.86,5.17-1.15Zm13.04,1.64c-.77.32-1.34.65-1.96.78-1.6.34-2.2,5.13-2.38,6.48,2.5-1.83,3.57-4.34,4.33-7.26Zm-13.24-1.36c-2.4,1.07-7.31,7.13-7.17,8.9,2.95-2.59,4.92-5.69,7.17-8.9Zm-.08-5.48c1.1.04,2.16.06,3.22.12,1.13.07,2.21-.76,2.39-1.99-2.29,0-4.77-.73-5.61,1.86Zm-2.06-1.59c-1.9.17-3.71.05-5.6,1.05,1.67.55,5.05,1.19,5.6-1.05Zm28.6,15.82c1.5-.2,3.67-2.71,3.9-4.53-1.62,1.3-2.89,2.75-3.9,4.53Zm-7-3.01c.08.04.17.07.25.11.74-1.15,1.47-2.3,2.21-3.45-.09-.09-.19-.18-.28-.27-1.06.96-1.74,2.24-2.17,3.62Z"/>
    <path class="cls-22" d="m658.28,450.53c5.17,0,10.56,1.14,15.67,1.9,1.32.19,5.43.41,5.47,2.35.05,2.5-4.19.92-5.35.68-5.33-1.09-10.62-2.37-16-3.16-4.54-.66-9.25-1.79-13.83-1.79.17-.19.25-.28.35-.38-1.19-.23-2.34-.45-3.7-.71,1.66-.54,3.26.75,4.75-.23.8,0,2.59.9,3.09.56,2.33.19,5.08-.51,7.3.61.83-.58,1.53-.03,2.25.16Z"/>
    <path class="cls-22" d="m544.87,438.01c.12-.43.24-.86.36-1.29,0,0-.03.03-.03.03.18-.02.37-.05.61-.08-.03.73-.28,1.18-.96,1.31,0,0,.03.02.03.02Z"/>
    <path class="cls-22" d="m601.36,434.77c-1.42,1.23-3.6.8-3.08-1.44.41-1.75,2.02-3.61,3.18-4.88.6-.66,2.76-3.43,3.14-1.69.3,1.4-2.36,4.72-3.01,5.89.06.08.13.15.19.23,1.58-1.09,2.42-2.78,3.56-4.3.92-1.23,2.52-3.28,2.85-.44.23,1.98-1.76,3.61-2.76,5.14-.62.94-1.15,3.53-2.57,3.5-.92-.02-1.33-.61-1.49-2.02Z"/>
    <path class="cls-22" d="m569.64,431.77h.7c-.49.84-1.46,2.78-2.64,2.78-1.45,0-1.71-1.56-1.38-2.62.7-2.28,3.59-5.92,5.78-6.88.48,1.39-.15,2.43-.79,3.73-.5,1-1.08,1.96-1.66,2.99Z"/>
    <path class="cls-22" d="m578.89,420.44c-.88,0-1.74.14-2.54-.26.77-.56,1.69-.18,2.6-.03-.02.1-.04.2-.07.3Z"/>
    <path class="cls-22" d="m575.6,420.17c-.67,0-1.44.86-2.13-.31.85.12,1.49.22,2.13.31Z"/>
  </g>
  <g>
    <path d="m209.24,429.41c-.69.95-1.11,1.24-1.74,1.27,1.37.6,4.03,1.29,2.2,3.23-1.18,1.25-3.35,1.82-4.82,2.68,8.66-.63,17.34-1.38,26.02-1.4,4.26,0,8.52.05,12.76.45,1.99.19,3.98.41,5.97.59,1.21.11,4.35-.22,4.97,1.09.89,1.9-2.02,1.74-2.96,1.63-2.14-.26-4.28-.5-6.43-.72-3.95-.4-7.86-1.16-11.83-1.25-8.47-.2-17.01.52-25.43,1.43-2.34.25-4.68.54-7.02.85-2.14.28-4.8.85-6.92.15-4.74-1.57,4.11-6.09,5.2-6.9-3.83-.4-8.26.93-12.03,1.54-2.14.34-4.28.69-6.42,1.03-1.38.22-3.56-.1-4.01,1.38-.55,1.79-.06,4.59-.08,6.47-.03,2.2-.05,4.39-.08,6.59-.03,2.2-.06,4.39-.09,6.59-.02,1.07.5,3.83-.99,4.23.14.46-.69,1-1.08.82-.5-.21-.23-1.27-.2-1.71.13-2.15.25-4.31.32-6.46.15-4.62.23-9.25.32-13.87.01-.6.36-2.4.02-2.88-.36-.52-1.39-.32-2.03-.36-1.51-.09-4.16.17-5.24-1.1-1.02-1.2-.32-2.51.84-3.25,2.23-1.41,1.82.3.95,1.78,1.97.43,2.6.64,4.1-.74.62-.57,1.21-.87,1.51-1.7.32-.91.18-2.31.25-3.27.31-4.12.62-8.24.82-12.37-4.09,1.71-8.98,3.28-12.08,6.61-.5.54-1.22,1.72-2.07,1.74-1.07.02-1-.89-.71-1.69.58-1.62,2.5-2.85,3.86-3.76,1.95-1.3,4.11-2.2,6.26-3.08,1.65-.68,4.71-1.1,5.09-3,.19-.96.02-5.67,1.79-5.38,1.63.27.51,4.77.41,5.72,5.38-1.23,11.7-3.1,17.11-1.25-2.41,1.05-4.88,1.34-7.47,1.55-2.87.24-5.69.82-8.47,1.54-1.56.4-1.66.97-1.84,2.5-.16,1.38-.22,2.77-.32,4.16-.2,2.84-.96,6.21-.51,9.01,3.98-1.98,7.83-4.09,12.14-5.22-.01-.03-.07-.16-.2-.42,1.02.34,1.32-.58,2.19-.2-.41.73-.42.52-.95.74-.67.28-1.06.49-1.74.98-.72.51-.8.3-1.57.59-.59.22-1.02.85-1.56,1.17-1.61.97-3.43,1.61-5.04,2.64-1.5.97-3.02,1.51-3.51,3.26,2.27.51,5.14-.38,7.43-.67,2.62-.34,5.24-.68,7.86-1,2.56-.31,5.13-.55,7.7-.74,2.54-.18,4.76-.81,7.22-1.25.68-.12,1.36-.24,2.11-.37Zm-.85,2.84c-1.43-.29-2.91-.51-4.21.14-2.91,1.45-5.79,3.06-8.46,4.9.05.09.1.19.14.28,4.26-1.54,8.54-3.05,12.52-5.31Z"/>
    <path d="m118.27,442.38c-1.34,1.23-2.69,2.97-4.43,3.55-.24-2.62,3.41-5.22,4.96-7.15,1.67-2.07,2.12-4.85,3.76-6.99,2.01-2.62,4.64-.97,2.92,1.98-1.4,2.4-3.64,4.35-4.4,7.03-.38,1.33-2.05,6.39.84,5.12,1.29-.57,2.11-1.6,2.89-2.72.92-1.33.43-1.78.64-3.35.2-1.49,2.23-6.68,4.38-5.53,2.16,1.16-.77,5.54-1.23,7.02,1.34.3,2.22-.71,2.59-1.81.49-1.43.52-2.58,1.6-3.8.69-.78,1.97-1.49,2.6-.16.53,1.11-.58,3.28-.88,4.34,2.4.83,4.12-1.5,5.28-3.19.67-.98.82-1.09,1.84-.49,1.3.76,1.72.96,3.15.07,1.04-.65,1.81-1.2,2.11-2.37.19-.75.08-1.89,1.17-2.02,1.36-.15.94,1.23,1.34,1.95.58,1.05,2.19,1.78,3.17,2.45-1.55.86-2.56,1.36-5.12-.74-1.34,1.23-2.76,3.05-4.66,3.34-.88.14-1.42-.24-2.19-.39-.89-.18-1.07.16-1.73.86-1.35,1.42-2.53,2.86-4.65,2.74-1.03-.06-1.24-.31-2.11.25-.76.49-1.25,1.09-2.18,1.33-.79.2-1.66-.25-2.34-.09-.74.17-1.13.89-1.58,1.44-1.03,1.27-2.32,2.8-3.92,3.39-1.03.38-2.27.18-3.13-.53-1.47-1.22-.89-3.12-.7-4.75.02-.21,0-.43,0-.77Z"/>
    <path d="m110.33,430.39c.36,6.41-1.69,12.48-2.48,18.76-.1.77-.07,3.15-1.51,2.92-1.22-.19-.86-2.47-.76-3.29.4-3.03,1.32-5.97,1.74-9.01.9-6.52,1.22-12.8-.21-19.28-.21-.95-1.07-3.26-.03-4.03.98-.74,1.76.5,2,1.37.8,2.91.91,6.29,1.24,9.29.12,1.08.02,2.18.02,3.27Z"/>
    <path d="m208.38,430.36c-.39-.85-.19-.22-.74-.67.65-.26,17.65-6.73,17.6-6.69.73.21,1.86-.94,2.63-1.02.46-.05.78.16,1.26.06.35-.07.43-.47.72-.62,1.58-.8,3.74-1.1,5.49-1.62,2.51-.74,5.12-1.22,7.67-1.79,2.14-.48,5.39-1.82,7.58-1.33.68.16,1.4.6,1.13,1.4-.33.95-1.8.88-2.59.99-2.61.35-5.19.78-7.77,1.27-5.13.98-10.4,1.77-15.42,3.23-.5.14-17.12,6.58-17.56,6.79Z"/>
    <path d="m141.33,403.67c-2.03,1.8-3.99,3.31-6.55,4.32-.76.3-6.69,2.53-6.96,1.84-.4-1.05,11.58-6.08,13.28-6.44.07.09.15.19.22.28Z"/>
    <path d="m90.77,425.11c-.55,1.11-1.99,1.33-2.99,1.84-1.34.68-2.61,1.52-3.9,2.28-1.03.6-6.72,4.63-7.56,4.04-1.11-.78,4.67-3.61,5.41-4.02,2.64-1.45,5.38-2.93,8.19-4.04.23-.09.51-.06.86-.1Z"/>
    <path d="m112.49,415.82c1.42-1.21,19.81-8.96,21.42-9.15,7.22-.77-22.96,11.34-21.42,9.15Z"/>
    <path d="m113.07,415.67c5.63-.76-27.79,11.93-22.69,9.97.1-.16-.62-.37-.47-.44.45-.23,26.51-11.78,23.16-9.53Z"/>
    <path d="m211.17,428.83c-.42.14-.84.28-1.26.41l-.09-.25c.39-.2.78-.39,1.17-.59.06.14.12.29.18.43Z"/>
  </g>
  <polygon class="cls-20" points="416.52 530.96 443.4 597.3 428.29 599.21 416.58 609.5 389.7 543.17 404.81 541.26 416.52 530.96"/>
  <polygon class="cls-54" points="392.37 542.83 404.81 541.26 404.81 541.26 404.81 541.26 414.45 532.78 440.73 597.64 428.29 599.21 418.65 607.69 392.37 542.83"/>
  <polygon class="cls-23" points="377.31 530.96 350.43 597.3 365.54 599.21 377.25 609.5 404.13 543.17 389.02 541.26 377.31 530.96"/>
  <polygon class="cls-15" points="401.46 542.83 389.02 541.26 389.02 541.26 389.02 541.26 379.38 532.78 353.1 597.64 365.54 599.21 375.18 607.69 401.46 542.83"/>
  <path class="cls-21" d="m446.54,519.07c0,2.14-2.6,4.09-2.87,6.16-.28,2.12,1.73,4.67,1.19,6.69-.55,2.06-3.57,3.26-4.37,5.2-.81,1.96.46,4.95-.59,6.77-1.06,1.83-4.29,2.22-5.57,3.89-1.29,1.68-.83,4.89-2.32,6.39-1.49,1.49-4.71,1.03-6.39,2.32-1.67,1.28-2.06,4.51-3.89,5.57-1.82,1.05-4.81-.22-6.77.59-1.94.8-3.15,3.82-5.2,4.37-2.02.54-4.57-1.47-6.69-1.19-2.07.27-4.02,2.87-6.16,2.87s-4.09-2.6-6.16-2.87c-2.12-.28-4.67,1.73-6.69,1.19-2.06-.55-3.26-3.57-5.2-4.37-1.96-.81-4.95.46-6.77-.59-1.83-1.06-2.22-4.29-3.89-5.57-1.68-1.29-4.89-.83-6.39-2.32-1.49-1.49-1.03-4.71-2.32-6.39-1.28-1.67-4.51-2.06-5.57-3.89-1.05-1.82.22-4.81-.59-6.77-.8-1.94-3.82-3.15-4.37-5.2-.54-2.02,1.47-4.57,1.19-6.69-.27-2.07-2.87-4.02-2.87-6.16s2.6-4.09,2.87-6.16c.28-2.12-1.73-4.67-1.19-6.69.55-2.06,3.57-3.26,4.37-5.2.81-1.96-.46-4.95.59-6.77,1.06-1.83,4.29-2.22,5.57-3.89,1.29-1.68.83-4.89,2.32-6.39,1.49-1.49,4.71-1.03,6.39-2.32,1.67-1.28,2.06-4.51,3.89-5.57,1.82-1.05,4.81.22,6.77-.59,1.94-.8,3.15-3.82,5.2-4.37,2.02-.54,4.57,1.47,6.69,1.19,2.07-.27,4.02-2.87,6.16-2.87s4.09,2.6,6.16,2.87c2.12.28,4.67-1.73,6.69-1.19,2.06.55,3.26,3.57,5.2,4.37,1.96.81,4.95-.46,6.77.59,1.83,1.06,2.22,4.29,3.89,5.57,1.68,1.29,4.89.83,6.39,2.32,1.49,1.49,1.03,4.71,2.32,6.39,1.28,1.67,4.51,2.06,5.57,3.89,1.05,1.82-.22,4.81.59,6.77.8,1.94,3.82,3.15,4.37,5.2.54,2.02-1.47,4.57-1.19,6.69.27,2.07,2.87,4.02,2.87,6.16Z"/>
  <circle class="cls-19" cx="396.91" cy="519.07" r="45.76" transform="translate(-250.79 432.69) rotate(-45)"/>
  <circle class="cls-24" cx="396.91" cy="519.07" r="43.82" transform="translate(-250.79 432.69) rotate(-45)"/>
  <circle class="cls-35" cx="397.31" cy="519.47" r="31.42"/>
  <g>
    <polygon class="cls-2" points="393.31 513.87 397.69 505.48 401.92 513.87 411.36 515.48 404.59 521.98 407.59 526.42 409.09 536.12 400.7 531.42 397.42 526.87 388.97 531.26 390.7 521.76 383.92 515.04 393.31 513.87"/>
    <polygon class="cls-43" points="391.92 511.48 393.31 513.87 397.69 505.48 397.84 499.89 391.92 511.48"/>
    <polygon class="cls-18" points="401.92 513.87 411.36 515.48 416.55 513.87 403.62 511.74 397.84 499.89 397.69 505.48 401.92 513.87"/>
    <polygon class="cls-53" points="407.12 522.96 404.59 521.98 411.36 515.48 416.55 513.87 407.12 522.96"/>
    <polygon class="cls-48" points="378.71 513.29 383.92 515.04 393.31 513.87 391.92 511.48 378.71 513.29"/>
    <polygon class="cls-5" points="387.99 522.63 390.7 521.76 383.92 515.04 378.71 513.29 387.99 522.63"/>
    <polygon class="cls-56" points="388.97 531.26 390.7 521.76 387.99 522.63 385.73 535.55 388.97 531.26"/>
    <polygon class="cls-12" points="396.96 529.89 397.42 526.87 388.97 531.26 385.73 535.55 396.96 529.89"/>
    <polygon class="cls-8" points="400.7 531.42 397.42 526.87 396.96 529.89 397.42 529.67 400.7 531.42"/>
    <polygon class="cls-13" points="407.59 526.42 407.12 522.96 404.59 521.98 407.59 526.42"/>
  </g>
</svg>